<?xml version="1.0" encoding="utf-8"?>
<!-- Generator: Adobe Illustrator 16.0.2, SVG Export Plug-In . SVG Version: 6.00 Build 0)  -->
<!DOCTYPE svg PUBLIC "-//W3C//DTD SVG 1.1//EN" "http://www.w3.org/Graphics/SVG/1.1/DTD/svg11.dtd">
<svg version="1.1" id="Ebene_1" xmlns="http://www.w3.org/2000/svg" xmlns:xlink="http://www.w3.org/1999/xlink" x="0px" y="0px"
	 width="599px" height="826px" viewBox="0 0 599 826" style="enable-background:new 0 0 599 826;" xml:space="preserve">
<polygon style="fill:#FFFFFF;stroke:#000000;stroke-width:2;stroke-linecap:round;stroke-linejoin:round;" points="570.774,1 
	575.172,1.385 579.436,2.527 583.437,4.393 587.052,6.924 590.174,10.046 592.704,13.662 594.57,17.662 595.713,21.926 
	596.098,26.323 596.098,798.685 595.713,803.082 594.57,807.346 592.704,811.347 590.174,814.962 587.052,818.083 583.437,820.615 
	579.436,822.48 575.172,823.623 570.774,824.008 26.323,824.008 21.926,823.623 17.662,822.48 13.662,820.615 10.045,818.083 
	6.924,814.962 4.393,811.347 2.527,807.346 1.385,803.082 1,798.685 1,26.323 1.385,21.926 2.527,17.662 4.393,13.662 6.924,10.046 
	10.045,6.924 13.662,4.393 17.662,2.527 21.926,1.385 26.323,1 "/>
<polyline style="fill:#0000FF;stroke:#0000FF;stroke-width:0.7087;stroke-linecap:round;stroke-linejoin:round;" points="
	26.007,20.309 26.007,804.698 571.092,804.698 571.092,20.309 26.007,20.309 "/>
<polyline style="fill:#00FF03;stroke:#000000;stroke-width:0.7087;stroke-linecap:round;stroke-linejoin:round;" points="
	97.468,200.223 97.468,325.701 494.181,325.701 494.181,200.223 97.468,200.223 "/>
<polyline style="fill:#FFFFFF;stroke:#0000FF;stroke-width:0.7087;stroke-linecap:round;stroke-linejoin:round;" points="
	97.468,576.235 493.284,576.235 493.284,748.193 97.468,748.193 97.468,576.235 "/>
<polyline style="fill:#FFFFFF;stroke:#0000FF;stroke-width:0.7087;stroke-linecap:round;stroke-linejoin:round;" points="
	95.968,349.337 491.294,349.337 491.294,551.373 95.968,551.373 95.968,349.337 "/>
<path style="fill:#0000FF;stroke:#0000FF;stroke-width:0.7087;stroke-linecap:round;stroke-linejoin:round;" d="M248.568,446.164
	c0-38.359-31.097-69.456-69.456-69.456c-38.358,0-69.456,31.097-69.456,69.456c0,38.359,31.098,69.456,69.456,69.456
	C217.472,515.62,248.568,484.523,248.568,446.164L248.568,446.164L248.568,446.164z"/>
<path style="fill:#FFFFFF;stroke:#0000FF;stroke-width:0.7087;stroke-linecap:round;stroke-linejoin:round;" d="M186.094,394.054
	c20.501,0,37.12,23.458,37.12,52.395c0,28.937-16.619,52.395-37.12,52.395l-14.676-0.532c-19.389-1.728-34.732-24.345-34.732-51.989
	c0-28.047,15.792-50.917,35.578-52.052L186.094,394.054z"/>
<path style="fill:none;stroke:#0000FF;stroke-width:0.7087;stroke-linecap:round;stroke-linejoin:round;" d="M193.15,413.268
	c0.12,0.032,0.24,0.066,0.357,0.102"/>
<path style="fill:none;stroke:#0000FF;stroke-width:0.7087;stroke-linecap:round;stroke-linejoin:round;" d="M193.716,413.365
	c8.525,2.634,15.277,16.469,15.668,33.296c0.441,18.87-7.282,34.354-17.249,34.588c-9.968,0.232-18.405-14.876-18.845-33.746
	c-0.44-18.869,7.283-34.354,17.25-34.587c0.958-0.022,1.899,0.097,2.821,0.347"/>
<path style="fill:#0000FF;stroke:#0000FF;stroke-width:0.7087;stroke-linecap:round;stroke-linejoin:round;" d="M196.2,480.459
	c7.42-5.012,12.508-18.03,12.154-33.176c-0.43-18.406-8.74-33.301-18.863-34.399l1.851,0.156
	c10.124,1.065,18.425,15.587,18.844,33.538c0.345,14.77-4.75,27.469-12.173,32.361L196.2,480.459z"/>
<path style="fill:none;stroke:#0000FF;stroke-width:3;stroke-linecap:round;stroke-linejoin:round;stroke-dasharray:12;" d="
	M188.989,497.136c-18.463-0.349-33.358-22.907-33.358-50.686c0-27.995,15.129-50.69,33.792-50.69"/>
<path style="fill:none;" d="M186.091,415.068c-7.869,5.728-13.308,18.007-13.308,32.233c0,13.298,4.754,24.896,11.801,31.029
	c6.401-7.365,10.557-19.209,10.557-32.566C195.139,433.487,191.63,422.487,186.091,415.068z"/>
<path style="opacity:0.28;fill:#FFFFFF;stroke:#0000FF;stroke-width:0.7087;stroke-linecap:round;stroke-linejoin:round;enable-background:new    ;" d="
	M186.091,415.068c-7.869,5.728-13.308,18.007-13.308,32.233c0,13.298,4.754,24.896,11.801,31.029
	c6.401-7.365,10.557-19.209,10.557-32.566C195.139,433.487,191.63,422.487,186.091,415.068z"/>
<path style="fill:#0000FF;" d="M186.091,413.875c-8.171,5.834-13.82,18.346-13.82,32.841c0,13.551,4.938,25.367,12.255,31.616"/>
<path style="fill:#0000FF;" d="M184.243,478.503c7.333-7.505,12.09-19.571,12.09-33.182c0-12.512-4.021-23.719-10.365-31.275"/>
<path style="opacity:0.99;fill:#0000FF;stroke:#FFFFFF;enable-background:new    ;" d="M153.326,406h1.819l0.229-0.341l-0.513-1.365
	l-5.119-0.512l-3.243,1.706l-1.023,4.268l5.461,0.341l2.391-1.365l0.198-0.299h-0.198L153.326,406L153.326,406z M151.678,407.713
	l-1.033,0.59l-2.358-0.147l0.441-1.843l1.401-0.737l2.212,0.221l0.221,0.59L151.678,407.713z"/>
<path style="fill:#0000FF;stroke:#0000FF;" d="M165.358,404.55l-5.12-0.512l-3.242,1.707l-0.063,0.256h-1.788h-1.819v2.432h0.198
	h2.825l-0.38,1.579l5.462,0.341l2.389-1.365l2.049-3.072L165.358,404.55z M162.173,407.969l-1.031,0.59l-2.358-0.146l0.441-1.844
	l1.4-0.737l2.212,0.221l0.221,0.59L162.173,407.969z"/>
<path style="opacity:0.99;fill:#0000FF;stroke:#FFFFFF;enable-background:new    ;" d="M144.324,428.053l1.703-0.09l0.192-0.397
	l-0.561-1.523l-4.823-0.33l-2.934,2.097l-0.702,4.894l5.132,0.118l2.154-1.668l0.168-0.349l-0.186,0.011L144.324,428.053z
	 M142.885,430.077l-0.931,0.72l-2.218-0.051l0.305-2.113l1.268-0.905l2.083,0.143l0.242,0.659L142.885,430.077z"/>
<path style="fill:#0000FF;stroke:#0000FF;" d="M155.499,425.813l-4.823-0.327l-2.932,2.096l-0.042,0.294l-1.673,0.089l-1.704,0.09
	l0.146,2.761l0.186-0.011l2.646-0.141l-0.26,1.811l5.132,0.118l2.154-1.668l1.732-3.587L155.499,425.813z M152.724,429.85
	l-0.931,0.722l-2.217-0.053l0.304-2.111l1.267-0.906l2.083,0.143l0.242,0.657L152.724,429.85z"/>
<path style="opacity:0.99;fill:#0000FF;stroke:#FFFFFF;enable-background:new    ;" d="M153.144,484.094h0.199l-0.199-0.299
	l-2.389-1.365l-5.461,0.343l1.023,4.266l3.243,1.707l5.12-0.512l0.512-1.365l-0.228-0.342h-1.821V484.094L153.144,484.094z
	 M152.38,486.14l-0.221,0.591l-2.211,0.221l-1.401-0.737l-0.442-1.843l2.359-0.147l1.032,0.591L152.38,486.14z"/>
<path style="opacity:0.99;fill:#0000FF;stroke:#FFFFFF;enable-background:new    ;" d="M144.121,460.718l0.186,0.016l-0.161-0.353
	l-2.119-1.713l-5.133,0.012l0.603,4.905l2.888,2.157l4.829-0.229l0.592-1.512l-0.184-0.402l-1.702-0.125L144.121,460.718z
	 M143.237,462.985l-0.255,0.651l-2.086,0.1l-1.248-0.932l-0.26-2.12l2.217-0.004l0.916,0.738L143.237,462.985z"/>
<path style="fill:#0000FF;stroke:#0000FF;" d="M155.636,464.435l-1.658-3.622l-2.12-1.713l-5.133,0.013l0.224,1.813l-2.643-0.192
	l-0.186-0.016l-0.203,2.757l1.702,0.125l1.67,0.123l0.036,0.295l2.888,2.156l4.829-0.229L155.636,464.435z M153.069,463.416
	l-0.256,0.654l-2.085,0.098l-1.248-0.932l-0.259-2.119l2.217-0.005l0.916,0.738L153.069,463.416z"/>
<polygon style="fill:#0000FF;stroke:#0000FF;stroke-width:0.7087;stroke-linecap:round;stroke-linejoin:round;" points="
	176.878,412.145 188.654,404.976 188.825,407.195 178.414,413.682 "/>
<polygon style="fill:#0000FF;stroke:#0000FF;stroke-width:0.7087;stroke-linecap:round;stroke-linejoin:round;" points="
	173.349,416.682 167.15,430.747 169.198,431.26 175.683,417.947 "/>
<polyline style="fill:#0000FF;stroke:#0000FF;stroke-width:0.7087;stroke-linecap:round;stroke-linejoin:round;" points="
	166.669,435.106 166.125,457.029 167.833,456.688 168.173,436.379 "/>
<polygon style="fill:#0000FF;stroke:#0000FF;stroke-width:0.7087;stroke-linecap:round;stroke-linejoin:round;" points="
	167.15,462.49 172.411,476.679 174.489,475.974 168.857,461.808 "/>
<polyline style="fill:#0000FF;" points="176.366,480.752 187.8,488.261 188.313,485.872 177.902,479.388 "/>
<polygon style="fill:#0000FF;stroke:#0000FF;stroke-width:0.7087;stroke-linecap:round;stroke-linejoin:round;" points="
	214.144,436.303 213.742,456.518 215.619,457.713 215.619,436.55 "/>
<polygon style="fill:#0000FF;stroke:#0000FF;stroke-width:0.7087;stroke-linecap:round;stroke-linejoin:round;" points="
	206.648,415.564 213.4,432.454 215.449,431.942 208.11,415.217 "/>
<polyline style="fill:#0000FF;" points="203.673,413.339 193.091,406.854 193.091,404.806 204.185,412.145 "/>
<path style="fill:#0000FF;stroke:#0000FF;" d="M165.102,486.171l-2.048-3.071l-2.389-1.365l-5.462,0.342l0.379,1.578h-2.826h-0.199
	v2.432h1.82h1.787l0.062,0.257l3.243,1.706l5.12-0.512L165.102,486.171z M162.291,485.443l-0.222,0.59l-2.212,0.223l-1.4-0.738
	l-0.441-1.844l2.358-0.146l1.031,0.59L162.291,485.443z"/>
<path style="fill:#0000FF;stroke:#FFFFFF;stroke-width:0.7087;stroke-linecap:round;stroke-linejoin:round;" d="M163.822,495.729
	c3.512,4.265,8.985,3.563,14.163,3.831c2.502,0.131,13.604,1.393,14.766-1.398c-4.348,0.827-9.24,0.569-13.627,0.231
	C174.019,497.999,168.268,498.396,163.822,495.729"/>
<path style="fill:#0000FF;stroke:#0000FF;stroke-width:0.7087;stroke-linecap:round;stroke-linejoin:round;" d="M162.371,458.907
	c-1.642-1.324-4.208,0.353-5.633,1.023c-1.201,1.519-1.429,4.6,0.513,5.888c1.824,1.212,4.392-0.741,5.817-1.567
	C164.284,463.549,163.116,459.507,162.371,458.907z M161.724,463.475c-0.854,0.496-2.396,1.668-3.491,0.941
	c-1.164-0.774-1.027-2.623-0.308-3.534c0.854-0.403,2.395-1.408,3.379-0.614C161.751,460.628,162.453,463.053,161.724,463.475z"/>
<path style="fill:#0000FF;stroke:#0000FF;stroke-width:0.7087;stroke-linecap:round;stroke-linejoin:round;" d="M169.784,456.861
	c-1.328-1.307-3.715-0.027-5.016,0.454c-1.177,1.25-1.626,3.963-0.033,5.263c1.499,1.222,3.906-0.303,5.224-0.921
	C171.08,461.132,170.386,457.454,169.784,456.861z M168.844,460.86c-0.79,0.37-2.234,1.284-3.133,0.552
	c-0.957-0.779-0.688-2.407,0.02-3.158c0.781-0.288,2.212-1.056,3.01-0.271C169.101,458.338,169.516,460.545,168.844,460.86z"/>
<polygon style="fill:#0000FF;" points="162.542,460.613 164.333,459.675 164.931,461.638 162.969,462.235 "/>
<path style="fill:#0000FF;stroke:#0000FF;stroke-width:0.7087;stroke-linecap:round;stroke-linejoin:round;" d="M170.458,478.793
	c-1.908-0.896-4.005,1.339-5.229,2.329c-0.808,1.76-0.298,4.807,1.894,5.599c2.059,0.746,4.091-1.76,5.281-2.899
	C173.416,482.85,171.323,479.2,170.458,478.793z M170.912,483.385c-0.715,0.685-1.934,2.188-3.168,1.74
	c-1.314-0.475-1.62-2.304-1.137-3.359c0.734-0.594,1.994-1.937,3.139-1.396C170.264,480.612,171.52,482.802,170.912,483.385z"/>
<path style="fill:#0000FF;stroke:#0000FF;stroke-width:0.7087;stroke-linecap:round;stroke-linejoin:round;" d="M177.175,475.05
	c-1.6-0.954-3.615,0.854-4.765,1.629c-0.848,1.493-0.642,4.236,1.215,5.121c1.746,0.831,3.723-1.221,4.855-2.133
	C179.445,478.891,177.9,475.482,177.175,475.05z M177.21,479.157c-0.681,0.547-1.867,1.777-2.915,1.277
	c-1.112-0.529-1.237-2.176-0.729-3.071c0.69-0.465,1.899-1.55,2.858-0.979C176.861,476.646,177.788,478.69,177.21,479.157z"/>
<polygon style="fill:#0000FF;" points="171.029,480.41 172.547,479.074 173.593,480.84 171.827,481.885 "/>
<path style="fill:#0000FF;stroke:#0000FF;stroke-width:0.7087;stroke-linecap:round;stroke-linejoin:round;" d="M187.933,491.841
	c-1.793,1.108-1.063,4.087-0.902,5.653c1.033,1.637,3.865,2.873,5.725,1.47c1.749-1.317,0.758-4.389,0.452-6.009
	C192.945,491.576,188.746,491.338,187.933,491.841z M192.027,493.967c0.185,0.974,0.778,2.813-0.271,3.605
	c-1.115,0.842-2.813,0.101-3.436-0.882c-0.097-0.939-0.533-2.729,0.542-3.393C189.351,492.997,191.871,493.141,192.027,493.967z"/>
<path style="fill:#0000FF;stroke:#0000FF;stroke-width:0.7087;stroke-linecap:round;stroke-linejoin:round;" d="M188.462,484.17
	c-1.672,0.819-1.257,3.494-1.235,4.881c0.789,1.524,3.199,2.851,4.954,1.777c1.65-1.01,1.01-3.786,0.864-5.233
	C192.92,484.364,189.22,483.798,188.462,484.17z M191.923,486.383c0.086,0.868,0.471,2.533-0.521,3.14
	c-1.052,0.645-2.499-0.151-2.972-1.065c-0.014-0.832-0.262-2.438,0.742-2.929C189.628,485.303,191.848,485.644,191.923,486.383z"/>
<polygon style="fill:#0000FF;" points="189.599,492.246 189.309,490.244 191.358,490.331 191.271,492.381 "/>
<path style="fill:none;stroke:#FFFFFF;" d="M206.935,480.028c0.323-0.87-0.742-1.729-1.227-2.231
	c-0.411-0.428-1.977,0.455-2.152,0.821c-0.389,0.805,0.563,1.691,0.981,2.209C205.288,481.168,206.591,480.953,206.935,480.028z"/>
<path style="fill:none;stroke:#FFFFFF;" d="M209.523,482.517c-0.506-0.443-2.163,0.712-2.319,1.144
	c-0.349,0.95,0.811,1.857,1.335,2.4c0.876,0.313,2.312-0.062,2.597-1.143C211.404,483.902,210.12,483.037,209.523,482.517z"/>
<path style="fill:#0000FF;stroke:#FFFFFF;" d="M209.765,481.296c-0.359-0.313-1.067-0.145-1.78,0.209l-0.294-0.409
	c0.157-0.184,0.289-0.391,0.378-0.63c0.539-1.45-1.235-2.881-2.043-3.719c-0.687-0.713-3.293,0.759-3.586,1.368
	c-0.646,1.343,0.937,2.819,1.636,3.682c0.64,0.291,1.521,0.338,2.306,0.108l0.387,0.367c-0.448,0.35-0.786,0.701-0.869,0.931
	c-0.58,1.583,1.352,3.097,2.227,4.002c1.46,0.52,3.852-0.104,4.328-1.905C212.898,483.606,210.759,482.166,209.765,481.296z
	 M204.538,480.827c-0.42-0.518-1.37-1.404-0.981-2.209c0.176-0.366,1.741-1.249,2.152-0.821c0.483,0.503,1.549,1.361,1.227,2.231
	C206.591,480.953,205.288,481.168,204.538,480.827z M211.136,484.918c-0.286,1.081-1.721,1.454-2.597,1.143
	c-0.525-0.543-1.685-1.45-1.335-2.4c0.157-0.432,1.813-1.587,2.319-1.144C210.12,483.037,211.404,483.902,211.136,484.918z"/>
<path style="fill:#0000FF;stroke:#FFFFFF;stroke-width:0.7087;stroke-linecap:round;stroke-linejoin:round;" d="M215.255,462.063
	c0.005,1.687,2.342,2.438,3.477,2.981c1.549-0.019,3.576-1.433,3.398-3.287c-0.167-1.744-2.675-2.354-3.908-2.823
	C217.173,458.534,215.253,461.298,215.255,462.063z M218.419,460.162c0.739,0.281,2.244,0.646,2.344,1.693
	c0.107,1.111-1.109,1.96-2.04,1.973c-0.681-0.327-2.082-0.778-2.085-1.789C216.638,461.58,217.79,459.922,218.419,460.162z"/>
<path style="fill:#0000FF;stroke:#0000FF;stroke-width:0.7087;stroke-linecap:round;stroke-linejoin:round;" d="M210.248,458.49
	c-0.144,1.483,1.854,2.319,2.81,2.886c1.37,0.101,3.282-0.988,3.285-2.633c0.003-1.548-2.158-2.272-3.205-2.78
	C212.246,455.533,210.312,457.817,210.248,458.49z M213.205,457.058c0.628,0.306,1.925,0.74,1.924,1.668
	c-0.003,0.987-1.15,1.641-1.971,1.581c-0.573-0.34-1.772-0.843-1.688-1.731C211.509,458.17,212.67,456.8,213.205,457.058z"/>
<polygon style="fill:#0000FF;" points="216.229,461.097 214.743,460.457 215.661,459.096 217.022,460.014 "/>
<path style="fill:#0000FF;stroke:#0000FF;stroke-width:0.7087;stroke-linecap:round;stroke-linejoin:round;" d="M164.008,429.11
	c-1.426-0.826-3.994-2.779-5.818-1.567c-1.939,1.288-1.714,4.369-0.512,5.888c1.422,0.672,3.992,2.349,5.632,1.024
	C164.054,433.854,165.222,429.813,164.008,429.11z M162.244,433.094c-0.984,0.794-2.525-0.211-3.379-0.613
	c-0.722-0.911-0.856-2.76,0.308-3.532c1.094-0.729,2.635,0.442,3.491,0.939C163.391,430.309,162.69,432.732,162.244,433.094z"/>
<path style="fill:#0000FF;stroke:#0000FF;stroke-width:0.7087;stroke-linecap:round;stroke-linejoin:round;" d="M170.898,431.704
	c-1.316-0.617-3.725-2.144-5.223-0.921c-1.594,1.3-1.146,4.013,0.033,5.262c1.301,0.481,3.687,1.761,5.015,0.455
	C171.325,435.907,172.018,432.23,170.898,431.704z M169.678,435.379c-0.798,0.783-2.229,0.018-3.009-0.271
	c-0.706-0.75-0.977-2.379-0.021-3.157c0.9-0.733,2.346,0.182,3.135,0.552C170.455,432.817,170.039,435.023,169.678,435.379z"/>
<polygon style="fill:#0000FF;" points="163.48,432.748 165.273,433.686 165.87,431.725 163.908,431.126 "/>
<path style="fill:#0000FF;stroke:#0000FF;stroke-width:0.7087;stroke-linecap:round;stroke-linejoin:round;" d="M173.342,409.542
	c-1.191-1.142-3.222-3.647-5.282-2.901c-2.189,0.792-2.701,3.838-1.893,5.599c1.224,0.989,3.321,3.227,5.229,2.328
	C172.262,414.162,174.355,410.512,173.342,409.542z M170.683,412.994c-1.144,0.538-2.403-0.805-3.138-1.398
	c-0.484-1.056-0.178-2.884,1.136-3.359c1.236-0.446,2.454,1.057,3.169,1.741C172.458,410.56,171.203,412.749,170.683,412.994z"/>
<path style="fill:#0000FF;stroke:#0000FF;stroke-width:0.7087;stroke-linecap:round;stroke-linejoin:round;" d="M179.42,413.693
	c-1.132-0.911-3.11-2.964-4.855-2.132c-1.855,0.886-2.062,3.628-1.216,5.121c1.15,0.775,3.166,2.584,4.765,1.629
	C178.84,417.879,180.385,414.471,179.42,413.693z M177.365,416.975c-0.961,0.573-2.17-0.512-2.859-0.977
	c-0.507-0.896-0.383-2.542,0.729-3.073c1.049-0.498,2.234,0.732,2.914,1.28C178.727,414.67,177.8,416.716,177.365,416.975z"/>
<polygon style="fill:#0000FF;" points="171.967,412.951 173.486,414.287 174.531,412.521 172.766,411.477 "/>
<path style="fill:#0000FF;stroke:#FFFFFF;stroke-width:0.7087;stroke-linecap:round;stroke-linejoin:round;" d="M194.145,400.407
	c0.307-1.621,1.297-4.69-0.452-6.009c-1.858-1.403-4.688-0.167-5.724,1.471c-0.161,1.564-0.891,4.544,0.902,5.652
	C189.685,402.023,193.885,401.785,194.145,400.407z M189.802,400.063c-1.076-0.665-0.639-2.453-0.542-3.392
	c0.621-0.982,2.32-1.724,3.435-0.882c1.05,0.792,0.455,2.633,0.271,3.605C192.81,400.222,190.29,400.365,189.802,400.063z"/>
<path style="fill:#0000FF;stroke:#0000FF;stroke-width:0.7087;stroke-linecap:round;stroke-linejoin:round;" d="M193.983,407.767
	c0.146-1.447,0.786-4.225-0.862-5.233c-1.756-1.072-4.167,0.252-4.955,1.776c-0.022,1.387-0.438,4.062,1.234,4.881
	C190.16,409.563,193.859,408.998,193.983,407.767z M190.112,407.834c-1.004-0.491-0.755-2.097-0.74-2.929
	c0.473-0.914,1.92-1.709,2.973-1.066c0.99,0.605,0.605,2.271,0.519,3.139C192.787,407.718,190.567,408.058,190.112,407.834z"/>
<polygon style="fill:#0000FF;" points="190.538,401.115 190.248,403.117 192.297,403.03 192.209,400.979 "/>
<path style="fill:#0000FF;stroke:#FFFFFF;stroke-width:0.7087;stroke-linecap:round;stroke-linejoin:round;" d="M210.704,412.064
	c0.995-0.867,3.134-2.309,2.687-4.003c-0.477-1.802-2.868-2.424-4.327-1.904c-0.876,0.904-2.808,2.419-2.228,4.001
	C207.099,410.877,209.859,412.803,210.704,412.064z M208.141,409.702c-0.347-0.95,0.812-1.858,1.336-2.401
	c0.876-0.312,2.312,0.062,2.596,1.143c0.271,1.017-1.016,1.881-1.61,2.402C209.955,411.288,208.299,410.133,208.141,409.702z"/>
<path style="fill:#0000FF;stroke:#0000FF;stroke-width:0.7087;stroke-linecap:round;stroke-linejoin:round;" d="M206.965,416.615
	c0.806-0.84,2.582-2.27,2.042-3.719c-0.574-1.542-2.744-1.9-3.994-1.332c-0.7,0.862-2.283,2.34-1.636,3.682
	C203.67,415.855,206.278,417.328,206.965,416.615z M204.496,414.744c-0.39-0.807,0.561-1.692,0.98-2.21
	c0.75-0.341,2.053-0.126,2.397,0.799c0.322,0.87-0.742,1.729-1.227,2.231C206.236,415.992,204.672,415.109,204.496,414.744z"/>
<polygon style="fill:#0000FF;" points="208.085,410.728 206.913,411.843 208.245,412.801 209.203,411.469 "/>
<path style="fill:#0000FF;stroke:#FFFFFF;stroke-width:0.7087;stroke-linecap:round;stroke-linejoin:round;" d="M219.161,434.428
	c1.232-0.47,3.74-1.08,3.907-2.824c0.179-1.854-1.85-3.268-3.398-3.285c-1.135,0.545-3.47,1.295-3.477,2.979
	C216.192,432.063,218.113,434.827,219.161,434.428z M217.578,431.322c0.002-1.013,1.403-1.462,2.085-1.788
	c0.93,0.011,2.146,0.857,2.04,1.972c-0.102,1.047-1.605,1.412-2.346,1.694C218.729,433.439,217.576,431.782,217.578,431.322z"/>
<path style="fill:#0000FF;stroke:#0000FF;stroke-width:0.7087;stroke-linecap:round;stroke-linejoin:round;" d="M214.076,437.397
	c1.048-0.507,3.208-1.231,3.206-2.778c-0.004-1.646-1.915-2.734-3.285-2.634c-0.955,0.564-2.952,1.401-2.812,2.886
	C211.25,435.544,213.185,437.828,214.076,437.397z M212.409,434.787c-0.084-0.891,1.113-1.393,1.687-1.731
	c0.822-0.061,1.97,0.595,1.972,1.579c0.001,0.93-1.295,1.365-1.923,1.668C213.609,436.563,212.448,435.19,212.409,434.787z"/>
<polygon style="fill:#0000FF;" points="217.168,432.266 215.682,432.904 216.599,434.266 217.96,433.348 "/>
<polygon style="fill:#0000FF;" points="192.58,488.432 204.867,481.605 203.161,480.411 192.75,486.725 "/>
<polyline style="fill:#0000FF;" points="207,478.619 215.363,460.528 213.143,460.971 206.111,477.103 207,478.619 "/>
<polygon style="fill:#0000FF;" points="164.59,406.769 167.406,408.305 166.51,409.2 163.822,408.176 "/>
<polygon style="fill:#0000FF;" points="154.862,428.656 157.806,429.168 157.294,430.447 154.478,430.192 "/>
<polygon style="fill:#0000FF;stroke:#0000FF;" points="156.782,462.447 157.038,464.24 154.35,464.24 154.222,462.832 "/>
<polygon style="fill:#0000FF;stroke:#0000FF;" points="162.925,484.208 165.358,483.185 166.253,485.104 164.078,485.615 "/>
<g>
	<rect x="27.254" y="91.455" style="fill:none;" width="542.59" height="432.506"/>
	<path style="fill:#FFFFFF;" d="M114.527,89.199c6.474,1.031,10.445,4.963,11.914,11.795l0.3,2.481l-8.576,0.645
		c-0.29-3.395-1.502-5.554-3.638-6.478c-2.136-0.923-4.45-0.698-6.941,0.677c-1.668,1.01-2.993,2.165-3.971,3.464
		c-0.979,1.3-2.024,3.84-3.137,7.622c-1.38,5.329-1.413,10.055-0.1,14.18c0.979,3.008,3.326,4.233,7.041,3.674
		c4.004-0.988,6.529-3.244,7.575-6.768h8.843c-0.823,4.533-3.226,8.293-7.208,11.279c-2.025,1.913-5.062,3.19-9.11,3.835
		c-0.534,0.021-1.057,0.032-1.568,0.032c-5.005,0-8.888-1.901-11.646-5.704c-2.247-3.523-3.37-7.659-3.37-12.407
		c0-2.083,0.222-4.297,0.667-6.639c1.246-6.982,3.704-12.396,7.375-16.242c1.891-2.083,4.126-3.598,6.708-4.544
		c2.024-0.688,4.093-1.031,6.207-1.031h0.367C112.991,89.07,113.748,89.114,114.527,89.199z"/>
	<path style="fill:#FFFFFF;" d="M154.638,108.857c0.823,1.826,1.235,4.018,1.235,6.574c0,1.182-0.089,2.438-0.267,3.771
		c-0.734,4.92-2.314,8.701-4.739,11.344c-2.736,3.008-5.773,4.673-9.11,4.995c-0.689,0.043-1.257,0.064-1.702,0.064
		c-0.601,0-1.235-0.032-1.902-0.097c-2.759-0.193-5.217-1.848-7.375-4.963c-1.18-1.89-1.769-4.383-1.769-7.477
		c0-0.902,0.056-1.858,0.167-2.868c0.534-5.586,2.503-10.001,5.907-13.245c2.336-2.17,4.572-3.373,6.708-3.609
		c0.934-0.15,1.846-0.226,2.736-0.226h0.3C149.143,103.121,152.413,105.034,154.638,108.857z M140.789,130.03
		c1.78,0.064,3.248-0.73,4.405-2.385c1.09-1.654,1.979-4.039,2.669-7.154c0.712-3.545,0.656-6.563-0.167-9.056
		c-0.712-1.998-1.847-2.868-3.404-2.61c-1.935-0.258-3.648,0.838-5.139,3.287c-1.113,2.042-1.88,4.362-2.303,6.961
		c-0.378,3.115-0.4,5.5-0.067,7.154C137.364,129.171,138.698,130.438,140.789,130.03z"/>
	<path style="fill:#FFFFFF;" d="M174.46,90.327l-8.81,44.795h-7.875l8.91-44.795H174.46z"/>
	<path style="fill:#FFFFFF;" d="M218.343,135.509h-7.575l0.701-4.157c-1.224,2.32-2.781,3.771-4.672,4.351
		c-0.979,0.258-2.181,0.43-3.604,0.516c-2.136-0.279-3.571-0.967-4.305-2.063c-2.025-1.955-3.204-4.791-3.538-8.508
		c-0.066-0.859-0.1-1.708-0.1-2.546c0-2.664,0.467-5.414,1.402-8.25c1.112-3.094,2.524-5.5,4.238-7.219
		c2.514-2.792,4.872-4.21,7.075-4.254c4.026-0.365,6.641,1.246,7.842,4.834l3.137-16.758h7.909L218.343,135.509z M210.634,109.083
		c-2.692,0.15-5.25,3.996-7.675,11.537c-0.134,6.08,1.034,9.26,3.504,9.539c4.205-0.645,6.641-4.329,7.308-11.054
		C214.861,112.682,213.815,109.341,210.634,109.083z"/>
	<path style="fill:#FFFFFF;" d="M242.537,102.831c3.692,0,6.329,0.87,7.909,2.61c1.69,1.547,2.603,3.996,2.736,7.348
		c0.022,0.451,0.033,0.892,0.033,1.321c-0.044,2.557-0.345,4.984-0.901,7.283h-17.386c-0.846,3.953-0.378,6.574,1.402,7.863
		c1.179,0.73,2.447,0.688,3.804-0.129c1.513-1.117,2.547-2.771,3.104-4.963h8.509c-1.001,3.953-3.148,7.058-6.44,9.313
		c-2.136,1.225-4.394,1.837-6.774,1.837c-2.002,0-4.105-0.43-6.307-1.289c-3.716-2.191-5.573-5.725-5.573-10.603
		c0-0.43,0.011-0.87,0.034-1.321c0.689-6.553,2.447-11.461,5.272-14.728C234.427,104.518,237.953,103.003,242.537,102.831z
		 M236.063,115.303h9.478c0.311-2.879,0.111-4.866-0.601-5.962c-1.802-1.912-3.993-1.783-6.574,0.387
		C237.097,111.146,236.33,113.004,236.063,115.303z"/>
	<path style="fill:#FFFFFF;" d="M307.742,89.296l-1.301,7.348l-15.618,0.032l-1.936,10.667h14.817l-1.234,7.283l-15.084,0.032
		l-4.171,20.561h-8.61l9.043-45.923H307.742z"/>
	<path style="fill:#FFFFFF;" d="M333.504,108.857c0.823,1.826,1.235,4.018,1.235,6.574c0,1.182-0.09,2.438-0.268,3.771
		c-0.733,4.92-2.313,8.701-4.738,11.344c-2.736,3.008-5.773,4.673-9.11,4.995c-0.689,0.043-1.257,0.064-1.702,0.064
		c-0.601,0-1.234-0.032-1.901-0.097c-2.759-0.193-5.218-1.848-7.375-4.963c-1.18-1.89-1.77-4.383-1.77-7.477
		c0-0.902,0.057-1.858,0.168-2.868c0.533-5.586,2.502-10.001,5.906-13.245c2.336-2.17,4.571-3.373,6.707-3.609
		c0.935-0.15,1.847-0.226,2.736-0.226h0.301C328.009,103.121,331.28,105.034,333.504,108.857z M319.656,130.03
		c1.78,0.064,3.248-0.73,4.405-2.385c1.09-1.654,1.979-4.039,2.67-7.154c0.711-3.545,0.655-6.563-0.167-9.056
		c-0.713-1.998-1.847-2.868-3.404-2.61c-1.936-0.258-3.648,0.838-5.139,3.287c-1.113,2.042-1.881,4.362-2.303,6.961
		c-0.379,3.115-0.4,5.5-0.066,7.154C316.23,129.171,317.565,130.438,319.656,130.03z"/>
	<path style="fill:#FFFFFF;" d="M360.034,135.251h-7.676l0.634-5.382c-2.425,3.202-4.86,5.039-7.308,5.511
		c-0.623,0.064-1.201,0.097-1.735,0.097c-1.558,0-2.715-0.258-3.471-0.773c-1.535-0.881-2.514-2.18-2.937-3.899
		c-0.334-1.246-0.5-2.61-0.5-4.093c0-1.096,0.1-2.256,0.3-3.48l3.671-19.884h8.209l-3.838,19.529
		c-0.423,2.191-0.155,3.814,0.802,4.866c1.646,1.246,3.414,1.053,5.306-0.58c1.445-1.332,2.58-3.685,3.403-7.058l3.204-16.758h7.742
		l-5.34,28.037L360.034,135.251z"/>
	<path style="fill:#FFFFFF;" d="M373.482,103.25h7.676l-0.634,4.479c1.646-2.406,3.281-3.888,4.905-4.447
		c0.734-0.193,1.423-0.29,2.069-0.29c0.533,0,1.223,0.086,2.068,0.258l-2.002,8.347c-1.802-0.601-3.37-0.419-4.705,0.548
		c-1.691,0.946-3.159,3.276-4.405,6.993l-3.037,16.017h-7.741L373.482,103.25z"/>
	<path style="fill:#FFFFFF;" d="M406.386,103.25c3.471,0.129,6.084,1.063,7.842,2.804c2.425,2.127,3.638,5.027,3.638,8.701
		c0,0.495-0.022,1.01-0.066,1.547h-7.542c0.4-5.156-0.746-7.552-3.438-7.187c-3.648-0.236-6.14,2.986-7.475,9.668
		c-0.935,7.734,0.233,11.419,3.504,11.054c2.848-0.129,4.816-1.848,5.906-5.156h7.809c-1.49,4.834-4.816,8.314-9.978,10.441
		c-1.713,0.279-3.215,0.419-4.505,0.419c-1.514,0-2.715-0.193-3.604-0.58c-4.649-1.354-7.097-5.36-7.341-12.021
		c0.2-6.445,1.924-11.365,5.172-14.76C399.378,105.13,402.738,103.487,406.386,103.25z"/>
	<path style="fill:#FFFFFF;" d="M428.744,90.263h7.876l-3.371,17.982c2.447-3.266,4.917-5.135,7.408-5.607
		c2.491-0.236,4.249-0.011,5.272,0.677c1.558,0.902,2.559,2.224,3.004,3.964c0.334,1.268,0.5,2.654,0.5,4.157
		c0,1.117-0.1,2.299-0.3,3.545l-3.737,20.174h-8.343l3.904-19.819c0.444-2.234,0.178-3.878-0.801-4.931
		c-1.669-1.268-3.471-1.074-5.406,0.58c-1.446,1.354-2.592,3.738-3.438,7.154l-3.236,17.016h-7.876L428.744,90.263z"/>
	<path style="fill:#FFFFFF;" d="M468.722,102.831c3.693,0,6.329,0.87,7.909,2.61c1.69,1.547,2.603,3.996,2.736,7.348
		c0.021,0.451,0.033,0.892,0.033,1.321c-0.045,2.557-0.345,4.984-0.9,7.283h-17.387c-0.846,3.953-0.378,6.574,1.401,7.863
		c1.18,0.73,2.447,0.688,3.805-0.129c1.513-1.117,2.547-2.771,3.104-4.963h8.51c-1.001,3.953-3.148,7.058-6.44,9.313
		c-2.136,1.225-4.395,1.837-6.774,1.837c-2.003,0-4.104-0.43-6.308-1.289c-3.715-2.191-5.572-5.725-5.572-10.603
		c0-0.43,0.011-0.87,0.033-1.321c0.689-6.553,2.447-11.461,5.272-14.728C460.614,104.518,464.139,103.003,468.722,102.831z
		 M462.248,115.303h9.478c0.312-2.879,0.111-4.866-0.601-5.962c-1.803-1.912-3.994-1.783-6.574,0.387
		C463.282,111.146,462.515,113.004,462.248,115.303z"/>
	<path style="fill:#FFFFFF;" d="M481.637,124.971h7.308c-0.467,1.826-0.189,3.234,0.834,4.222c1.202,0.859,2.781,1.01,4.739,0.451
		c1.957-0.559,2.858-1.793,2.703-3.706c0.021-1.246-0.891-2.363-2.736-3.352c-2.381-1.01-4.572-2.341-6.574-3.996
		c-2.069-1.611-2.814-4.157-2.236-7.638c0.423-2.191,1.603-4.049,3.538-5.575c1.423-1.16,3.214-1.869,5.372-2.127
		c1.046-0.064,1.98-0.097,2.804-0.097c1.379,0,2.424,0.097,3.137,0.29c1.802,0.366,3.281,1.149,4.438,2.353
		c1.268,1.418,1.901,3.298,1.901,5.64c0,0.495-0.033,1.021-0.1,1.579h-7.742c0.622-2.105,0.301-3.523-0.968-4.254
		c-2.314-0.601-3.949-0.269-4.905,0.999c-1.313,1.826-1.102,3.276,0.634,4.351c5.139,2.535,8.164,4.426,9.077,5.672
		c1.112,1.268,1.657,2.944,1.635,5.027c-0.089,1.676-0.423,3.137-1.001,4.383c-0.823,1.439-1.914,2.75-3.271,3.932
		c-1.69,1.289-3.415,2.063-5.172,2.32c-0.913,0.107-1.78,0.161-2.604,0.161c-1.49,0-2.903-0.108-4.238-0.322
		c-1.757-0.559-3.326-1.568-4.705-3.029c-1.224-1.225-1.868-3.062-1.936-5.511L481.637,124.971z"/>
</g>
<g>
	<rect x="97.02" y="227.397" style="fill:none;" width="396.713" height="428.107"/>
	<path style="fill:#FFFFFF;" d="M143.778,226.775c8.415,1.181,14.639,5.742,18.673,13.686c3.442,5.87,5.164,13.08,5.164,21.629
		v0.861c0,10.688-2.834,19.779-8.502,27.275c-4.034,5.041-9.736,7.863-17.108,8.47c-0.765,0.063-1.513,0.096-2.243,0.096
		c-7.65,0-14.066-2.967-19.247-8.9c-5.355-7.911-8.067-16.03-8.137-24.356c-0.035-0.701-0.052-1.403-0.052-2.105
		c0-11.261,2.729-20.576,8.189-27.945c3.651-4.02,7.458-6.587,11.423-7.704c2.747-0.797,5.494-1.196,8.241-1.196
		C141.396,226.584,142.595,226.648,143.778,226.775z M139.762,286.542c4.033-0.191,7.44-2.728,10.223-7.608
		c2.016-3.254,3.286-8.039,3.807-14.355c0.104-8.039-1.443-14.626-4.642-19.763c-2.608-3.572-5.494-5.566-8.658-5.981
		c-4.172,0.191-7.65,2.696-10.432,7.513c-1.982,3.382-3.269,8.23-3.859,14.547c-0.07,8.039,1.512,14.611,4.746,19.715
		C133.52,284.182,136.458,286.159,139.762,286.542z"/>
	<path style="fill:#FFFFFF;" d="M195.488,227.732v47.469c0.66,6.062,4.381,9.443,11.162,10.145
		c6.676-0.67,10.432-4.003,11.266-10.001v-47.612h14.761v51.153c-1.287,6.253-4.503,11.118-9.649,14.595
		c-4.59,2.967-9.284,4.529-14.083,4.689c-0.765,0.063-1.513,0.096-2.243,0.096c-7.129,0-13.022-1.897-17.682-5.694
		c-5.32-4.721-8.137-9.538-8.45-14.451v-50.388H195.488z"/>
	<path style="fill:#FFFFFF;" d="M258.672,227.589l15.491,50.436l13.3-50.436h14.866l-18.517,70.15h-19.351l-20.498-70.15H258.672z"
		/>
	<path style="fill:#FFFFFF;" d="M358.994,227.685v12.824h-31.607v15.313h23.158v12.968h-23.158v16.03h32.964v12.968h-47.673
		l0.052-70.103H358.994z"/>
	<path style="fill:#FFFFFF;" d="M397.246,227.397c8.032,0,14.309,2.648,18.829,7.943c3.964,4.658,5.946,9.905,5.946,15.743
		c0,1.053-0.07,2.297-0.209,3.732c-0.834,7.114-4.712,13-11.631,17.657l12.727,25.266h-16.482l-10.9-20.911h-9.44v21.055h-14.448
		l0.052-70.485H397.246z M395.16,263.334l4.277-0.479c2.433-0.605,4.467-1.866,6.103-3.78c1.39-1.882,2.225-4.131,2.503-6.747
		c0.139-3.254-0.904-6.093-3.129-8.518c-1.878-1.978-4.608-3.094-8.189-3.35h-10.483v22.873H395.16z"/>
	<path style="fill:#FFFFFF;" d="M479.156,227.589v13.494h-15.282v56.704h-14.188v-56.848h-16.325v-13.351H479.156z"/>
</g>
<g>
	<rect x="189.492" y="414.058" style="fill:none;" width="357.042" height="428.107"/>
	<path d="M268.184,414.115c1.594,0.178,3.004,0.762,4.231,1.752c1.227,0.99,2.107,2.107,2.643,3.352
		c0.673,1.333,1.009,2.762,1.009,4.285c0,0.711-0.006,1.174-0.019,1.39c-0.1,1.752-0.455,3.212-1.065,4.38s-1.277,2.063-1.999,2.686
		c-1.569,1.46-3.22,2.202-4.951,2.228h-5.193v7.827h-5.119v-27.898H268.184z M262.916,428.626h4.222
		c0.647-0.076,1.183-0.241,1.607-0.495c1.146-0.698,1.831-1.91,2.055-3.637c0.038-1.563-0.274-2.749-0.934-3.562
		s-1.538-1.276-2.634-1.39h-4.315V428.626z"/>
	<path d="M286.833,414.115l6.875,14.892v-14.892h5.082l0.019,27.955h-4.988l-8.35-17.615l-0.019,17.635h-5.137v-27.975H286.833z"/>
	<path d="M319.773,414.172v5.104h-11.321v6.094h8.295v5.161h-8.295v6.38h11.807v5.16h-17.074l0.019-27.898H319.773z"/>
	<path d="M329.977,414.191v18.891c0.236,2.412,1.569,3.758,3.998,4.037c2.391-0.267,3.736-1.593,4.035-3.98v-18.947h5.286v20.357
		c-0.461,2.488-1.612,4.424-3.456,5.808c-1.644,1.181-3.325,1.803-5.044,1.866c-0.273,0.025-0.541,0.038-0.803,0.038
		c-2.554,0-4.664-0.755-6.333-2.267c-1.905-1.878-2.914-3.795-3.026-5.75v-20.053H329.977z"/>
	<path d="M347.373,436.377v-0.039c0-0.139,0.143-0.234,0.43-0.285c2.204-0.724,3.637-1.244,4.297-1.562
		c0.336,0.47,0.777,0.896,1.326,1.276c0.884,0.533,1.831,0.856,2.84,0.971c1.07,0.025,1.737,0,1.998-0.076
		c1.233-0.355,1.993-0.717,2.279-1.086c0.286-0.253,0.535-0.869,0.747-1.847c0.05-0.381,0-0.806-0.149-1.276
		c-0.187-0.316-0.386-0.583-0.598-0.799l-0.635-0.496l-0.71-0.323c-3.948-1.257-6.121-1.993-6.52-2.209
		c-1.831-0.749-3.195-1.986-4.092-3.714c-0.585-1.154-0.847-2.558-0.784-4.208c0.236-2.057,1.064-3.688,2.484-4.894
		c1.594-1.182,3.257-1.822,4.988-1.924h0.485c1.233,0,2.254,0.096,3.063,0.285c1.645,0.471,2.927,1.124,3.849,1.962
		c0.922,0.774,1.682,1.828,2.279,3.161l-0.057,0.209l-3.848,1.886l-0.188-0.095c-0.236-0.774-0.902-1.403-1.998-1.886
		c-1.233-0.47-2.679-0.482-4.335-0.038c-0.709,0.241-1.208,0.553-1.494,0.934c-0.1,0.102-0.23,0.418-0.393,0.951
		c-0.024,0.623,0,0.984,0.075,1.086c0.161,0.432,0.485,0.818,0.972,1.162l0.485,0.209c3.537,1.066,5.935,1.841,7.192,2.323
		c1.083,0.508,1.911,1.066,2.484,1.676l1.046,1.447c0.772,1.308,1.184,2.736,1.233,4.284c0.012,0.103,0.019,0.223,0.019,0.362
		c0,0.495-0.075,1.161-0.225,1.999c-0.311,1.182-0.685,2.051-1.12,2.609c-0.747,0.939-1.289,1.504-1.626,1.695
		c-1.83,1.282-3.717,1.974-5.66,2.075h-1.7c-1.27-0.127-2.341-0.381-3.213-0.762c-1.395-0.66-2.521-1.396-3.381-2.209
		C348.513,438.554,347.896,437.608,347.373,436.377z"/>
	<path d="M390.368,414.115l6.874,14.892v-14.892h5.082l0.019,27.955h-4.988l-8.351-17.615l-0.019,17.635h-5.137v-27.975H390.368z"/>
	<path d="M423.308,414.172v5.104h-11.321v6.094h8.295v5.161h-8.295v6.38h11.807v5.16h-17.074l0.019-27.898H423.308z"/>
	<path d="M433.588,414.153v27.917h-5.193v-27.917H433.588z"/>
	<path d="M449.135,413.772c3.574,0.381,6.114,2.8,7.621,7.255l-4.856,1.295c-0.872-1.954-1.868-3.129-2.989-3.522
		c-1.457-0.559-2.864,0.223-4.222,2.343c-0.848,1.422-1.37,3.497-1.569,6.227c-0.037,3.009,0.427,5.411,1.392,7.208
		c0.965,1.796,2.102,2.79,3.409,2.979c2.093-0.101,3.649-2.005,4.67-5.713h-4.427v-5.084h9.751v0.229
		c0.013,0.305,0.02,0.616,0.02,0.934c0,4.583-1.04,8.315-3.12,11.197c-1.396,1.955-3.438,3.047-6.128,3.275h-0.41
		c-5.979,0-9.354-4.393-10.126-13.178c-0.012-0.254-0.019-0.515-0.019-0.781c0-4.456,0.99-8.188,2.971-11.197
		c1.17-1.523,2.435-2.507,3.792-2.951c1.071-0.355,2.192-0.533,3.362-0.533C448.543,413.754,448.835,413.76,449.135,413.772z"/>
	<path d="M478.189,414.172v5.104h-11.321v6.094h8.295v5.161h-8.295v6.38h11.807v5.16H461.6l0.019-27.898H478.189z"/>
</g>
<g>
	<rect x="254" y="464.24" style="fill:none;" width="226" height="428.107"/>
	<path d="M327.106,464.298l7.062,27.898h-5.361l-1.177-4.742h-7.565l-1.196,4.742h-5.417l6.986-27.898H327.106z M321.091,482.142
		h5.398l-2.615-10.893L321.091,482.142z"/>
	<path d="M349.173,464.241c1.794,0.216,3.316,0.945,4.567,2.189c1.252,1.244,2.158,2.717,2.719,4.418
		c0.261,0.749,0.454,1.732,0.579,2.951v8.57c-0.188,2.895-1.081,5.23-2.681,7.008c-1.601,1.777-3.547,2.723-5.838,2.837h-10.835
		l0.019-27.974H349.173z M343.046,486.712h4.371c0.884-0.14,1.638-0.474,2.261-1c0.622-0.527,1.151-1.45,1.588-2.771
		c0.236-0.812,0.305-3.77,0.205-8.873c-0.586-2.641-1.937-4.158-4.054-4.552h-4.371V486.712z"/>
	<path d="M361.545,464.298h7.043l5.511,14.797l5.643-14.797h7.023v27.955h-5.212v-17.652l-6.818,17.652h-1.364l-6.762-17.5
		l0.056,17.5h-5.119V464.298z"/>
	<path d="M397.138,464.336v27.917h-5.193v-27.917H397.138z"/>
	<path d="M401.625,486.56v-0.039c0-0.139,0.143-0.234,0.43-0.285c2.204-0.724,3.637-1.244,4.297-1.562
		c0.336,0.47,0.777,0.896,1.326,1.276c0.884,0.533,1.831,0.856,2.84,0.971c1.07,0.025,1.737,0,1.998-0.076
		c1.233-0.355,1.993-0.717,2.279-1.086c0.286-0.253,0.535-0.869,0.747-1.847c0.05-0.381,0-0.806-0.149-1.276
		c-0.187-0.316-0.386-0.583-0.598-0.799l-0.635-0.496l-0.71-0.323c-3.948-1.257-6.121-1.993-6.52-2.209
		c-1.831-0.749-3.195-1.986-4.092-3.714c-0.585-1.154-0.847-2.558-0.784-4.208c0.236-2.057,1.064-3.688,2.484-4.894
		c1.594-1.182,3.257-1.822,4.988-1.924h0.485c1.233,0,2.254,0.096,3.063,0.285c1.645,0.471,2.927,1.124,3.849,1.962
		c0.922,0.774,1.682,1.828,2.279,3.161l-0.057,0.209l-3.848,1.886l-0.188-0.095c-0.236-0.774-0.902-1.403-1.998-1.886
		c-1.233-0.47-2.679-0.482-4.335-0.038c-0.709,0.241-1.208,0.553-1.494,0.934c-0.1,0.102-0.23,0.418-0.393,0.951
		c-0.024,0.623,0,0.984,0.075,1.086c0.161,0.432,0.485,0.818,0.972,1.162l0.485,0.209c3.537,1.066,5.935,1.841,7.192,2.323
		c1.083,0.508,1.911,1.066,2.484,1.676l1.046,1.447c0.772,1.308,1.184,2.736,1.233,4.284c0.012,0.103,0.019,0.223,0.019,0.362
		c0,0.495-0.075,1.161-0.225,1.999c-0.311,1.182-0.685,2.051-1.12,2.609c-0.747,0.939-1.289,1.504-1.626,1.695
		c-1.83,1.282-3.717,1.974-5.66,2.075h-1.7c-1.27-0.127-2.341-0.381-3.213-0.762c-1.395-0.66-2.521-1.396-3.381-2.209
		C402.765,488.736,402.148,487.791,401.625,486.56z"/>
</g>
</svg>
