<?xml version="1.0" encoding="UTF-8" standalone="no"?>
<svg
   version="1.2"
   width="125.19mm"
   height="125.22mm"
   viewBox="0 0 12519 12522"
   preserveAspectRatio="xMidYMid"
   fill-rule="evenodd"
   stroke-width="28.222"
   stroke-linejoin="round"
   xml:space="preserve"
   id="svg26"
   sodipodi:docname="SC13.svg"
   inkscape:version="1.4 (e7c3feb100, 2024-10-09)"
   xmlns:inkscape="http://www.inkscape.org/namespaces/inkscape"
   xmlns:sodipodi="http://sodipodi.sourceforge.net/DTD/sodipodi-0.dtd"
   xmlns="http://www.w3.org/2000/svg"
   xmlns:svg="http://www.w3.org/2000/svg"
   xmlns:ooo="http://xml.openoffice.org/svg/export"><sodipodi:namedview
   id="namedview26"
   pagecolor="#ffffff"
   bordercolor="#000000"
   borderopacity="0.25"
   inkscape:showpageshadow="2"
   inkscape:pageopacity="0.0"
   inkscape:pagecheckerboard="true"
   inkscape:deskcolor="#d1d1d1"
   inkscape:document-units="mm"
   fit-margin-top="50"
   fit-margin-left="50"
   fit-margin-right="50"
   fit-margin-bottom="50"
   inkscape:zoom="179.602"
   inkscape:cx="472.51423"
   inkscape:cy="472.05488"
   inkscape:window-width="1280"
   inkscape:window-height="731"
   inkscape:window-x="0"
   inkscape:window-y="0"
   inkscape:window-maximized="1"
   inkscape:current-layer="g23" />
 <defs
   class="ClipPathGroup"
   id="defs2">
  <clipPath
   id="presentation_clip_path"
   clipPathUnits="userSpaceOnUse">
   <rect
   x="0"
   y="0"
   width="21001"
   height="29703"
   id="rect1" />
  </clipPath>
  <clipPath
   id="presentation_clip_path_shrink"
   clipPathUnits="userSpaceOnUse">
   <rect
   x="21"
   y="29"
   width="20959"
   height="29644"
   id="rect2" />
  </clipPath>
 </defs>
 <defs
   class="TextShapeIndex"
   id="defs3">
  <g
   ooo:slide="id1"
   ooo:id-list="id3 id4 id5 id6 id7 id8 id9 id10"
   id="g2" />
 </defs>
 <defs
   class="EmbeddedBulletChars"
   id="defs12">
  <g
   id="bullet-char-template-57356"
   transform="matrix(4.8828125e-4,0,0,-4.8828125e-4,0,0)">
   <path
   d="M 580,1141 1163,571 580,0 -4,571 Z"
   id="path3" />
  </g>
  <g
   id="bullet-char-template-57354"
   transform="matrix(4.8828125e-4,0,0,-4.8828125e-4,0,0)">
   <path
   d="M 8,1128 H 1137 V 0 H 8 Z"
   id="path4" />
  </g>
  <g
   id="bullet-char-template-10146"
   transform="matrix(4.8828125e-4,0,0,-4.8828125e-4,0,0)">
   <path
   d="M 174,0 602,739 174,1481 1456,739 Z M 1358,739 309,1346 659,739 Z"
   id="path5" />
  </g>
  <g
   id="bullet-char-template-10132"
   transform="matrix(4.8828125e-4,0,0,-4.8828125e-4,0,0)">
   <path
   d="M 2015,739 1276,0 H 717 l 543,543 H 174 v 393 h 1086 l -543,545 h 557 z"
   id="path6" />
  </g>
  <g
   id="bullet-char-template-10007"
   transform="matrix(4.8828125e-4,0,0,-4.8828125e-4,0,0)">
   <path
   d="m 0,-2 c -7,16 -16,29 -25,39 l 381,530 c -94,256 -141,385 -141,387 0,25 13,38 40,38 9,0 21,-2 34,-5 21,4 42,12 65,25 l 27,-13 111,-251 280,301 64,-25 24,25 c 21,-10 41,-24 62,-43 C 886,937 835,863 770,784 769,783 710,716 594,584 L 774,223 c 0,-27 -21,-55 -63,-84 l 16,-20 C 717,90 699,76 672,76 641,76 570,178 457,381 L 164,-76 c -22,-34 -53,-51 -92,-51 -42,0 -63,17 -64,51 -7,9 -10,24 -10,44 0,9 1,19 2,30 z"
   id="path7" />
  </g>
  <g
   id="bullet-char-template-10004"
   transform="matrix(4.8828125e-4,0,0,-4.8828125e-4,0,0)">
   <path
   d="M 285,-33 C 182,-33 111,30 74,156 52,228 41,333 41,471 c 0,78 14,145 41,201 34,71 87,106 158,106 53,0 88,-31 106,-94 l 23,-176 c 8,-64 28,-97 59,-98 l 735,706 c 11,11 33,17 66,17 42,0 63,-15 63,-46 V 965 c 0,-36 -10,-64 -30,-84 L 442,47 C 390,-6 338,-33 285,-33 Z"
   id="path8" />
  </g>
  <g
   id="bullet-char-template-9679"
   transform="matrix(4.8828125e-4,0,0,-4.8828125e-4,0,0)">
   <path
   d="M 813,0 C 632,0 489,54 383,161 276,268 223,411 223,592 c 0,181 53,324 160,431 106,107 249,161 430,161 179,0 323,-54 432,-161 108,-107 162,-251 162,-431 0,-180 -54,-324 -162,-431 C 1136,54 992,0 813,0 Z"
   id="path9" />
  </g>
  <g
   id="bullet-char-template-8226"
   transform="matrix(4.8828125e-4,0,0,-4.8828125e-4,0,0)">
   <path
   d="m 346,457 c -73,0 -137,26 -191,78 -54,51 -81,114 -81,188 0,73 27,136 81,188 54,52 118,78 191,78 73,0 134,-26 185,-79 51,-51 77,-114 77,-187 0,-75 -25,-137 -76,-188 -50,-52 -112,-78 -186,-78 z"
   id="path10" />
  </g>
  <g
   id="bullet-char-template-8211"
   transform="matrix(4.8828125e-4,0,0,-4.8828125e-4,0,0)">
   <path
   d="M -4,459 H 1135 V 606 H -4 Z"
   id="path11" />
  </g>
  <g
   id="bullet-char-template-61548"
   transform="matrix(4.8828125e-4,0,0,-4.8828125e-4,0,0)">
   <path
   d="m 173,740 c 0,163 58,303 173,419 116,115 255,173 419,173 163,0 302,-58 418,-173 116,-116 174,-256 174,-419 0,-163 -58,-303 -174,-418 C 1067,206 928,148 765,148 601,148 462,206 346,322 231,437 173,577 173,740 Z"
   id="path12" />
  </g>
 </defs>
 <g
   id="g12"
   transform="translate(-3705,-7542)">
  <g
   id="id2"
   class="Master_Slide">
   <g
   id="bg-id2"
   class="Background" />
   <g
   id="bo-id2"
   class="BackgroundObjects" />
  </g>
 </g>
 <g
   class="SlideGroup"
   id="g26"
   transform="translate(-3705,-7542)">
  <g
   id="g25">
   <g
   id="container-id1">
    <g
   id="id1"
   class="Slide"
   clip-path="url(#presentation_clip_path)">
     <g
   class="Page"
   id="g24">
      <g
   class="Group"
   id="g23">
       <g
   class="com.sun.star.drawing.PolyPolygonShape"
   id="g13">
        <g
   id="id3">
         <rect
   class="BoundingBox"
   stroke="none"
   fill="none"
   x="3714"
   y="7550"
   width="12503"
   height="12506"
   id="rect12" />
         <path
   fill="#fefefe"
   stroke="none"
   d="M 3714,7550 V 20055 H 16216 V 7550 Z"
   id="path13" />
        </g>
       </g>
       <g
   class="com.sun.star.drawing.PolyPolygonShape"
   id="g15">
        <g
   id="id4">
         
         <path
   fill="#fefefe"
   stroke="none"
   d="M 3714,7551 V 20055 H 16215 V 7551 Z"
   id="path14" />
         <path
   fill="none"
   stroke="#1b1918"
   stroke-width="18"
   stroke-linejoin="round"
   d="M 3714,7551 V 20055 H 16215 V 7551 Z"
   id="path15" />
        </g>
       </g>
       <g
   class="com.sun.star.drawing.PolyPolygonShape"
   id="g16">
        <g
   id="id5">
         <rect
   class="BoundingBox"
   stroke="none"
   fill="none"
   x="4019"
   y="7856"
   width="11895"
   height="11898"
   id="rect15" />
         <path
   fill="#0000ff"
   stroke="none"
   d="M 4019,7856 V 19753 H 15913 V 7856 Z"
   id="path16" />
        </g>
       </g>
       <g
   class="Group"
   id="g22">
        <g
   class="com.sun.star.drawing.ClosedBezierShape"
   id="g17">
         <g
   id="id6">
          <rect
   class="BoundingBox"
   stroke="none"
   fill="none"
   x="4676"
   y="11130"
   width="10580"
   height="5349"
   id="rect16" />
          <path
   fill="#fefefe"
   stroke="none"
   d="m 14960,15092 h 295 v -371 h -275 c -5,-137 -40,-259 -81,-386 l 158,-71 c -229,-631 -686,-1047 -1260,-1159 -51,-300 -117,-569 -203,-863 -1021,10 -2021,50 -3042,127 -127,-168 -340,-275 -538,-325 l -1002,-148 -462,-66 -122,-147 92,-178 858,-208 -81,-167 -874,182 -365,625 c -264,-213 -513,-325 -874,-305 -172,391 -249,742 41,996 137,25 264,20 391,-16 l -528,787 c -229,-116 -498,-192 -777,-192 -899,0 -1635,732 -1635,1636 0,904 736,1635 1635,1635 899,0 1635,-731 1635,-1635 0,-462 -193,-889 -508,-1190 l 549,-817 c 96,594 518,670 990,680 l 81,306 c -381,223 -467,1275 371,1275 l 2301,-5 c 117,782 798,1386 1610,1386 808,0 1493,-609 1620,-1386 z"
   id="path17" />
         </g>
        </g>
        <g
   class="com.sun.star.drawing.ClosedBezierShape"
   id="g18">
         <g
   id="id7">
          <rect
   class="BoundingBox"
   stroke="none"
   fill="none"
   x="13196"
   y="13742"
   width="1227"
   height="982"
   id="rect17" />
          <path
   fill="#0000ff"
   stroke="none"
   d="m 13409,14286 -213,-534 c 50,-5 96,-10 142,-10 564,0 1033,436 1083,981 h -539 c -41,-224 -234,-402 -473,-437 z"
   id="path18" />
         </g>
        </g>
        <g
   class="com.sun.star.drawing.ClosedBezierShape"
   id="g19">
         <g
   id="id8">
          <rect
   class="BoundingBox"
   stroke="none"
   fill="none"
   x="12251"
   y="13879"
   width="749"
   height="845"
   id="rect18" />
          <path
   fill="#0000ff"
   stroke="none"
   d="m 12810,13879 189,513 c -102,77 -183,199 -204,331 h -544 c 35,-361 259,-682 559,-844 z"
   id="path19" />
         </g>
        </g>
        <g
   class="com.sun.star.drawing.ClosedBezierShape"
   id="g20">
         <g
   id="id9">
          <rect
   class="BoundingBox"
   stroke="none"
   fill="none"
   x="12277"
   y="15088"
   width="2131"
   height="856"
   id="rect19" />
          <path
   fill="#0000ff"
   stroke="none"
   d="m 12837,15089 c 81,162 239,279 417,304 30,0 60,10 86,10 228,0 416,-127 503,-314 h 564 c -116,488 -549,854 -1067,854 -518,0 -951,-366 -1062,-854 z"
   id="path20" />
         </g>
        </g>
        <g
   class="com.sun.star.drawing.ClosedBezierShape"
   id="g21">
         <g
   id="id10">
          <rect
   class="BoundingBox"
   stroke="none"
   fill="none"
   x="5213"
   y="13741"
   width="2196"
   height="2208"
   id="rect20" />
          <path
   fill="#0000ff"
   stroke="none"
   d="m 7109,14083 c 193,198 299,473 299,762 0,611 -492,1103 -1098,1103 -605,0 -1097,-482 -1097,-1103 0,-620 492,-1127 1097,-1103 264,11 320,36 452,97 l -320,468 c -5,10 -96,-26 -132,-26 -314,0 -564,250 -564,564 0,315 250,570 564,565 315,-5 529,-275 534,-560 0,-106 -21,-193 -71,-279 z"
   id="path21" />
         </g>
        </g>
       </g>
      </g>
     </g>
    </g>
   </g>
  </g>
 </g>
</svg>
