<?xml version="1.0" encoding="UTF-8" standalone="no"?>
<svg
   version="1.2"
   width="125.21mm"
   height="125.23mm"
   viewBox="0 0 12521 12523"
   preserveAspectRatio="xMidYMid"
   fill-rule="evenodd"
   stroke-width="28.222"
   stroke-linejoin="round"
   xml:space="preserve"
   id="svg20"
   sodipodi:docname="SC1a.svg"
   inkscape:version="1.4 (e7c3feb100, 2024-10-09)"
   xmlns:inkscape="http://www.inkscape.org/namespaces/inkscape"
   xmlns:sodipodi="http://sodipodi.sourceforge.net/DTD/sodipodi-0.dtd"
   xmlns="http://www.w3.org/2000/svg"
   xmlns:svg="http://www.w3.org/2000/svg"><sodipodi:namedview
   id="namedview20"
   pagecolor="#ffffff"
   bordercolor="#000000"
   borderopacity="0.25"
   inkscape:showpageshadow="2"
   inkscape:pageopacity="0.0"
   inkscape:pagecheckerboard="true"
   inkscape:deskcolor="#d1d1d1"
   inkscape:document-units="mm"
   fit-margin-top="50"
   fit-margin-left="50"
   fit-margin-right="50"
   fit-margin-bottom="50"
   inkscape:zoom="62.480618"
   inkscape:cx="0.76023576"
   inkscape:cy="0.19205956"
   inkscape:window-width="1280"
   inkscape:window-height="731"
   inkscape:window-x="0"
   inkscape:window-y="0"
   inkscape:window-maximized="1"
   inkscape:current-layer="svg20" />
 <defs
   class="ClipPathGroup"
   id="defs2"><clipPath
     id="presentation_clip_path"
     clipPathUnits="userSpaceOnUse">
   <rect
   x="0"
   y="0"
   width="21000"
   height="29700"
   id="rect1" />
  </clipPath></defs>
 <defs
   class="TextShapeIndex"
   id="defs3" />
 <defs
   class="EmbeddedBulletChars"
   id="defs12" />
 <g
   id="g12"
   transform="translate(-3670,-7573)">
  <g
   id="id2"
   class="Master_Slide">
   <g
   id="bg-id2"
   class="Background" />
   <g
   id="bo-id2"
   class="BackgroundObjects" />
  </g>
 </g>
 <g
   class="SlideGroup"
   id="g20"
   transform="translate(-3670,-7573)">
  <g
   id="g19">
   <g
   id="container-id1">
    <g
   id="id1"
   class="Slide"
   clip-path="url(#presentation_clip_path)">
     <g
   class="Page"
   id="g18">
      <g
   class="Group"
   id="g17">
       <g
   class="com.sun.star.drawing.PolyPolygonShape"
   id="g14">
        <g
   id="id3">
         
         <path
   fill="#fefefe"
   stroke="none"
   d="M 3679,7582 V 20087 H 16182 V 7582 Z"
   id="path13" />
         <path
   fill="none"
   stroke="#1b1918"
   stroke-width="18"
   stroke-linejoin="round"
   d="M 3679,7582 V 20087 H 16182 V 7582 Z"
   id="path14" />
        </g>
       </g>
       <g
   class="com.sun.star.drawing.PolyPolygonShape"
   id="g15">
        <g
   id="id4">
         <rect
   class="BoundingBox"
   stroke="none"
   fill="none"
   x="3986"
   y="7887"
   width="11897"
   height="11899"
   id="rect14" />
         <path
   fill="#0000ff"
   stroke="none"
   d="M 3986,7887 V 19785 H 15882 V 7887 Z"
   id="path15" />
        </g>
       </g>
       <g
   class="com.sun.star.drawing.ClosedBezierShape"
   id="g16">
        <g
   id="id5">
         <rect
   class="BoundingBox"
   stroke="none"
   fill="none"
   x="5227"
   y="10948"
   width="9420"
   height="5779"
   id="rect15" />
         <path
   fill="#fefefe"
   stroke="none"
   d="m 7151,14740 c 546,0 991,445 991,991 0,546 -445,991 -991,991 -546,0 -991,-445 -991,-991 0,-546 445,-991 991,-991 z m 0,0 z m 5607,3 c 546,0 991,445 991,991 0,545 -445,991 -991,991 -546,0 -991,-446 -991,-991 0,-546 445,-991 991,-991 z m 0,0 z m -4454,944 c 3,-616 -528,-1114 -1158,-1114 -633,0 -1155,487 -1155,1120 l -764,-3 2,-444 h 162 l -3,-1139 c 0,-210 121,-314 334,-316 l 135,-1303 c 35,-248 91,-278 350,-278 h 1125 v -1036 c 0,-121 126,-228 248,-226 h 6829 c 153,0 237,64 237,226 v 4521 h -714 c -3,-630 -544,-1125 -1174,-1125 -630,0 -1182,482 -1185,1114 z m 0,0 z M 7333,12472 H 6330 c -178,-7 -203,19 -216,228 l -105,1095 h 1322 z"
   id="path16" />
        </g>
       </g>
      </g>
     </g>
    </g>
   </g>
  </g>
 </g>
</svg>
