<?xml version="1.0" encoding="UTF-8" standalone="no"?>
<svg
   version="1.2"
   width="125.21mm"
   height="125.23mm"
   viewBox="0 0 12521 12523"
   preserveAspectRatio="xMidYMid"
   fill-rule="evenodd"
   stroke-width="28.222"
   stroke-linejoin="round"
   xml:space="preserve"
   id="svg20"
   sodipodi:docname="SC4.svg"
   inkscape:version="1.4 (e7c3feb100, 2024-10-09)"
   xmlns:inkscape="http://www.inkscape.org/namespaces/inkscape"
   xmlns:sodipodi="http://sodipodi.sourceforge.net/DTD/sodipodi-0.dtd"
   xmlns="http://www.w3.org/2000/svg"
   xmlns:svg="http://www.w3.org/2000/svg"><sodipodi:namedview
   id="namedview20"
   pagecolor="#ffffff"
   bordercolor="#000000"
   borderopacity="0.25"
   inkscape:showpageshadow="2"
   inkscape:pageopacity="0.0"
   inkscape:pagecheckerboard="true"
   inkscape:deskcolor="#d1d1d1"
   inkscape:document-units="mm"
   fit-margin-top="50"
   fit-margin-left="50"
   fit-margin-right="50"
   fit-margin-bottom="50"
   inkscape:zoom="99.832675"
   inkscape:cx="472.73601"
   inkscape:cy="473.17173"
   inkscape:window-width="1280"
   inkscape:window-height="731"
   inkscape:window-x="0"
   inkscape:window-y="0"
   inkscape:window-maximized="1"
   inkscape:current-layer="svg20" />
 <defs
   class="ClipPathGroup"
   id="defs2"><clipPath
     id="presentation_clip_path"
     clipPathUnits="userSpaceOnUse">
   <rect
   x="0"
   y="0"
   width="21001"
   height="29703"
   id="rect1" />
  </clipPath></defs>
 <defs
   class="TextShapeIndex"
   id="defs3" />
 <defs
   class="EmbeddedBulletChars"
   id="defs12" />
 <g
   id="g12"
   transform="translate(-4152,-7266)">
  <g
   id="id2"
   class="Master_Slide">
   <g
   id="bg-id2"
   class="Background" />
   <g
   id="bo-id2"
   class="BackgroundObjects" />
  </g>
 </g>
 <g
   class="SlideGroup"
   id="g20"
   transform="translate(-4152,-7266)">
  <g
   id="g19">
   <g
   id="container-id1">
    <g
   id="id1"
   class="Slide"
   clip-path="url(#presentation_clip_path)">
     <g
   class="Page"
   id="g18">
      <g
   class="Group"
   id="g17">
       <g
   class="com.sun.star.drawing.PolyPolygonShape"
   id="g14">
        <g
   id="id3">
         
         <path
   fill="#fefefe"
   stroke="none"
   d="M 4161,7275 V 19780 H 16664 V 7275 Z"
   id="path13" />
         <path
   fill="none"
   stroke="#1b1918"
   stroke-width="18"
   stroke-linejoin="round"
   d="M 4161,7275 V 19780 H 16664 V 7275 Z"
   id="path14" />
        </g>
       </g>
       <g
   class="com.sun.star.drawing.PolyPolygonShape"
   id="g15">
        <g
   id="id4">
         <rect
   class="BoundingBox"
   stroke="none"
   fill="none"
   x="4468"
   y="7579"
   width="11897"
   height="11899"
   id="rect14" />
         <path
   fill="#0000ff"
   stroke="none"
   d="M 4468,7579 V 19477 H 16364 V 7579 Z"
   id="path15" />
        </g>
       </g>
       <g
   class="com.sun.star.drawing.ClosedBezierShape"
   id="g16">
        <g
   id="id5">
         <rect
   class="BoundingBox"
   stroke="none"
   fill="none"
   x="5032"
   y="10095"
   width="10771"
   height="6865"
   id="rect15" />
         <path
   fill="#fefefe"
   stroke="none"
   d="m 13738,16959 c -911,0 -1675,-646 -1863,-1506 l -1387,-58 c -550,-55 -686,-614 -681,-1199 l -1885,-1289 -153,397 c 646,342 1089,1016 1089,1789 0,343 -87,664 -238,948 l -211,-69 c -310,553 -899,926 -1574,926 -993,0 -1803,-808 -1803,-1805 0,-596 292,-1132 744,-1456 l -99,-200 c 327,-232 730,-365 1158,-365 200,0 394,32 577,87 l 263,-680 h -851 l 3,-934 h 1208 l 55,-165 -197,-440 c -115,-197 -52,-365 148,-492 l 759,-353 156,341 -730,348 273,602 -232,623 1581,1083 c 356,1008 1419,1014 1749,0 l 197,-564 -684,-287 v -379 h 1903 c 363,0 337,582 -3,591 l -701,31 -119,339 2880,-3 v 359 h -446 c 640,304 1103,927 1178,1657 l -168,46 c 6,55 12,113 12,168 0,1052 -857,1909 -1908,1909 z m 0,0 z m -6604,-1993 425,-1112 c 430,246 714,712 714,1239 0,795 -647,1440 -1438,1440 -790,0 -1436,-645 -1436,-1440 0,-793 646,-1439 1436,-1439 128,0 258,20 371,47 l -417,1077 c -153,23 -272,156 -272,315 0,178 142,320 318,320 177,0 319,-142 319,-320 0,-46 -6,-89 -20,-127 z m 0,0 z m 5439,-643 h 1165 c 399,-3 729,324 729,727 0,403 -330,731 -729,731 -244,0 -461,-122 -594,-313 l -713,-12 c 176,559 696,964 1307,964 753,0 1369,-613 1369,-1370 0,-756 -616,-1370 -1369,-1370 -481,0 -919,261 -1165,643 z"
   id="path16" />
        </g>
       </g>
      </g>
     </g>
    </g>
   </g>
  </g>
 </g>
</svg>
